#!OML:ASF H:\IndianDance\Patient Classification 1\Patient 1\Session 1\dancer.ASF
:FULLY-SPECIFIED
:DEGREES
3296
root 0.316081 13.8854 -7.23841 1267.9 -12.8859 -176.791
lowerback 8.96629 4.4323 -3.70118
upperback -10.2451 3.90705 -5.09108
thorax -16.5315 1.46642 -4.53473
lowerneck -17.9019 15.9098 9.23296
upperneck 6.98484 20.108 -7.42716
head 6.58788 9.40817 -1.36431
rclavicle 8.01102e-014 -1.11319e-014
rhumerus -33.875 10.9099 -28.0438
rradius 37.6253
rwrist -1.16585
rhand -36.2813 32.9627
rfingers 7.12502
rthumb -9.38121 3.1915
lclavicle 8.01102e-014 -1.11319e-014
lhumerus 6.30502 35.4685 28.0243
lradius 35.7025
lwrist 53.166
lhand -18.4108 57.5141
lfingers 7.12502
lthumb 7.87383 -272.653
rfemur -43.3665 -9.14144 25.5818
rtibia 79.2295
rfoot -26.9962 -9.16084
rtoes 7.38224
lfemur -41.4332 20.3852 -14.8533
ltibia 69.2358
lfoot -26.7186 8.71654
ltoes -8.24672
3297
root 0.296053 13.9026 -7.24328 1267.86 -12.606 -176.713
lowerback 8.91806 4.45034 -3.51219
upperback -10.1745 4.01966 -4.93485
thorax -16.3971 1.52437 -4.47568
lowerneck -17.8369 15.7817 9.25113
upperneck 7.22912 19.9465 -7.3318
head 6.63733 9.33882 -1.3571
rclavicle -2.40529e-014 -1.59028e-015
rhumerus -33.6566 11.0835 -28.0673
rradius 37.6983
rwrist -1.0376
rhand -36.342 33.0982
rfingers 7.12502
rthumb -9.43976 3.32956
lclavicle -2.40529e-014 -1.59028e-015
lhumerus 5.76902 30.4247 27.0952
lradius 35.1858
lwrist 51.9699
lhand -19.5449 57.9006
lfingers 7.12502
lthumb 6.77915 -272.228
rfemur -43.6943 -9.10831 25.6064
rtibia 79.5047
rfoot -27.071 -9.08158
rtoes 7.07738
lfemur -41.1262 20.4814 -14.8185
ltibia 68.9368
lfoot -26.7051 8.86134
ltoes -7.94876
3298
root 0.279208 13.9211 -7.2497 1267.84 -12.3218 -176.658
lowerback 8.84583 4.4621 -3.39103
upperback -10.111 4.11062 -4.76872
thorax -16.2648 1.57987 -4.36153
lowerneck -17.7799 15.6398 9.26166
upperneck 7.51926 19.7645 -7.19246
head 6.69592 9.26254 -1.33672
rclavicle 3.99557e-014 -1.03368e-013
rhumerus -33.4378 11.2492 -28.1019
rradius 37.8066
rwrist -1.05275
rhand -36.3896 33.1006
rfingers 7.12502
rthumb -9.48575 3.33408
lclavicle 3.99557e-014 -1.03368e-013
lhumerus 5.09781 24.6674 26.0261
lradius 35.0294
lwrist 50.3167
lhand -20.5052 58.123
lfingers 7.12502
lthumb 5.85207 -271.978
rfemur -43.9896 -9.01906 25.6142
rtibia 79.689
rfoot -27.2883 -9.04659
rtoes 6.4995
lfemur -40.8101 20.5301 -14.7869
ltibia 68.6245
lfoot -26.6493 9.04575
ltoes -7.7635
3299
root 0.266005 13.941 -7.2577 1267.83 -12.0462 -176.645
lowerback 8.75518 4.46064 -3.36028
upperback -10.0518 4.16551 -4.59692
thorax -16.1376 1.62798 -4.18199
lowerneck -17.7358 15.4872 9.26745
upperneck 7.85178 19.5648 -7.01242
head 6.76435 9.18046 -1.3038
rclavicle -2.74323e-014 -4.77083e-015
rhumerus -33.2042 11.3855 -28.1478
rradius 37.9335
rwrist -1.1685
rhand -36.4081 32.9921
rfingers 7.12502
rthumb -9.50359 3.2264
lclavicle -2.74323e-014 -4.77083e-015
lhumerus 4.35945 18.3811 24.8785
lradius 35.2593
lwrist 48.2544
lhand -21.3182 58.2135
lfingers 7.12502
lthumb 5.06714 -271.867
rfemur -44.2536 -8.887 25.584
rtibia 79.7834
rfoot -27.6012 -9.02828
rtoes 5.73546
lfemur -40.4806 20.5163 -14.7801
ltibia 68.2886
lfoot -26.5415 9.29565
ltoes -7.76651
3300
root 0.256662 13.9625 -7.26721 1267.82 -11.7906 -176.679
lowerback 8.65209 4.43992 -3.42035
upperback -9.99405 4.17641 -4.42077
thorax -16.0156 1.66483 -3.93719
lowerneck -17.6987 15.3206 9.25847
upperneck 8.20109 19.3432 -6.79399
head 6.83261 9.09069 -1.25978
rclavicle 3.55825e-014 -1.08139e-013
rhumerus -32.949 11.496 -28.2086
rradius 38.0668
rwrist -1.34843
rhand -36.405 32.8621
rfingers 7.12502
rthumb -9.50062 3.09626
lclavicle 3.55825e-014 -1.08139e-013
lhumerus 3.60169 11.7996 23.7079
lradius 35.8891
lwrist 45.8305
lhand -22.0471 58.1896
lfingers 7.12502
lthumb 4.36331 -271.875
rfemur -44.4855 -8.71677 25.5104
rtibia 79.7839
rfoot -27.9643 -9.00828
rtoes 4.8758
lfemur -40.1368 20.4261 -14.803
ltibia 67.9232
lfoot -26.3827 9.60892
ltoes -7.90933
